# xmcd CD database file generated by Grip 3.2.0
# 
# Track frame offsets:
#       150
#       15765
#       34635
# 
# Disc length: 647 seconds
# 
# Revision: 1
# Processed by: cddbd v1.5.2PL0 Copyright (c) Steve Scherf et al.
# Submitted via: Grip 3.2.0
# 
DISCID=10028503
DTITLE=Larry Mullen and Adam Clayton - Theme from MIssion Impossible
DYEAR=1996
DGENRE=Soundtrack
TTITLE0=Theme from Mission Impossible
TTITLE1=Theme from Mission Impossible - Juniors Hard Mix Edit
TTITLE2=Mission Impossible Theme - Mission Accomplished
EXTD=
EXTT0=
EXTT1=
EXTT2=
PLAYORDER=
